<svg xmlns="http://www.w3.org/2000/svg" xmlns:xlink="http://www.w3.org/1999/xlink" version="1.1" xml:space="preserve" viewBox="0 0 438.14 306.68" width="256" height="256">
    <g>
        <path fill="#FF0000" d="M428.93666191101073,48.04376609802247 c-5.018406372070313,-18.819023895263673 -19.864525222778322,-33.66514274597168 -38.753249206542975,-38.753249206542975 C356.03036933898926,0.1598052978515625 218.99999534606934,0.1598052978515625 218.99999534606934,0.1598052978515625 S82.0393214416504,0.1598052978515625 47.8165779876709,9.290516891479498 c-18.819023895263673,5.018406372070313 -33.66514274597168,19.864525222778322 -38.753249206542975,38.753249206542975 C-0.06738281250000178,82.19680946350098 -0.06738281250000178,153.5 -0.06738281250000178,153.5 s0,71.30319053649903 9.13071159362793,105.45623390197754 c5.018406372070313,18.819023895263673 19.864525222778322,33.66514274597168 38.753249206542975,38.753249206542975 C82.0393214416504,306.84019470214844 218.99999534606934,306.84019470214844 218.99999534606934,306.84019470214844 s137.03037399291992,0 171.18341735839843,-9.13071159362793 c18.819023895263673,-5.018406372070313 33.66514274597168,-19.864525222778322 38.753249206542975,-38.753249206542975 C438.0673735046387,224.80319053649902 438.0673735046387,153.5 438.0673735046387,153.5 S438.0673735046387,82.19680946350098 428.93666191101073,48.04376609802247 z" id="svg_1"/>
        <path fill="#ffffff" d="M303.515631180857,163.88393191611766 c-0.6302341803815567,-1.5108197990036216 -2.100906850106064,-2.4966969453577033 -3.7329255299522934,-2.4966969453577033 H255.51292069062936 V60.38842009958925 C255.51292069062936,58.15836069208529 253.70289115454554,56.34833115600148 251.47283174704157,56.34833115600148 H186.83330238215032 c-2.2300594075039677,0 -4.040088943587776,1.8100295360838095 -4.040088943587776,4.040088943587776 v100.99919361767331 H138.35375004510757 c-1.6320186798462284,0 -3.1026913495707378,0.9858771463540817 -3.7329255299522934,2.4887432688024074 c-0.6222805038262609,1.5108197990036216 -0.2829236374669621,3.248130006581866 0.8726319420667709,4.4036855861155955 l80.59725576033361,80.86389329818735 c0.7593867377794599,0.7593867377794599 1.7857897599152868,1.1877490322575486 2.860293587885524,1.1877490322575486 s2.100906850106064,-0.42836229447808954 2.860293587885524,-1.1797953557022525 l80.83169984546355,-80.86389329818735 C303.79855481832396,167.1320619226995 304.1458653612385,165.39513046162392 303.515631180857,163.88393191611766 z"/>
    </g>
</svg>